<svg width="67" height="30" viewBox="0 0 67 30" fill="none" xmlns="http://www.w3.org/2000/svg">
<path d="M6.58629 23.1299C7.62223 23.1299 8.53863 22.9407 9.3355 22.5622C10.1324 22.1637 10.74 21.5661 11.1583 20.7692V22.7714H15.3419V6.4554H10.8595V15.988C10.8595 16.9243 10.5806 17.6813 10.0228 18.2591C9.465 18.8169 8.74781 19.0958 7.87125 19.0958C6.99469 19.0958 6.27751 18.8169 5.7197 18.2591C5.16188 17.6813 4.88298 16.9243 4.88298 15.988V6.4554H0.400574V16.3466C0.400574 18.3786 0.928501 20.0221 1.98436 21.2772C3.06013 22.5124 4.59411 23.1299 6.58629 23.1299Z" fill="black"/>
<path d="M18.6181 4.99114H23.1005V0.508738H18.6181V4.99114ZM18.6181 22.7714H23.1005V6.4554H18.6181V22.7714Z" fill="black"/>
<path d="M28.3528 22.7714H32.8352V10.3401H36.3315V6.4554H32.8352V6.21634C32.8352 4.76204 33.6819 4.0349 35.3752 4.0349C35.6542 4.0349 35.9829 4.06478 36.3614 4.12455V0.29956C35.9032 0.199951 35.3752 0.150146 34.7776 0.150146C32.7456 0.150146 31.1618 0.678074 30.0262 1.73393C28.9106 2.78979 28.3528 4.28392 28.3528 6.21634V6.4554H25.6036V10.3401H28.3528V22.7714Z" fill="black"/>
<path d="M38.6371 22.7714H43.1195V13.9858C43.1195 12.7706 43.4582 11.8343 44.1355 11.1769C44.8129 10.4995 45.6994 10.1609 46.7951 10.1609H48.1996V6.2761H47.2433C46.2473 6.2761 45.3607 6.46536 44.5838 6.84387C43.8268 7.20246 43.2391 7.88977 42.8207 8.90578V6.4554H38.6371V22.7714Z" fill="black"/>
<path d="M52.7042 29.4053C55.6924 29.4053 57.854 27.702 59.1887 24.2954L66.1813 6.4554H61.3702L57.5153 16.9442L53.6604 6.4554H48.8493L55.2741 22.7714L54.9753 23.4587C54.7362 23.9965 54.4274 24.4747 54.0489 24.893C53.6704 25.3114 53.0428 25.5206 52.1663 25.5206C51.4491 25.5206 50.7718 25.421 50.1343 25.2217V28.8973C50.4729 29.0766 50.8614 29.2061 51.2997 29.2858C51.7579 29.3655 52.2261 29.4053 52.7042 29.4053Z" fill="black"/>
</svg>
